<svg xmlns="http://www.w3.org/2000/svg" width="27" height="27" viewBox="0 0 27 27"><g><g><path fill="#383030" d="M26.25 13.375c0 7.237-5.888 13.125-13.125 13.125S0 20.612 0 13.375 5.888.25 13.125.25 26.25 6.138 26.25 13.375zm-2.386 0c0-5.921-4.818-10.739-10.74-10.739-5.92 0-10.738 4.818-10.738 10.739 0 5.921 4.818 10.739 10.739 10.739 5.921 0 10.739-4.818 10.739-10.74zm-4.13-4.64a1.193 1.193 0 0 1 0 1.687l-7.594 7.593a1.193 1.193 0 0 1-1.687 0l-3.937-3.937a1.193 1.193 0 1 1 1.687-1.687l3.094 3.093 6.75-6.75a1.193 1.193 0 0 1 1.687 0z"/></g></g></svg>